# xmcd
#
# Track frame offsets:
# 150
# 16767
# 35448
# 54255
# 67586
# 83499
# 98967
# 114667
# 131290
# 146231
# 172958
# 195908
#
# Disc length: 2875 seconds
#
#
# Revision: 2
# Processed by: cddbd v1.5.1PL0 Copyright (c) Steve Scherf et al.
# Submitted via: FreeRIP 2.941 
#
DISCID=8a0b390c
DTITLE=Shirley Carvalhaes - Olhos de Quem Ama
DYEAR=1900
DGENRE=Evangélico
TTITLE0=Uma Lágrima no Rosto
TTITLE1=Tú és Santo
TTITLE2=Olhos de Quem Ama
TTITLE3=Deus Tremendo
TTITLE4=Vem Acalmar o Mar
TTITLE5=Deus Nunca Falha
TTITLE6=Cente Não Acha tem certeza
TTITLE7=Tú Estás Comigo
TTITLE8=De Volta Pra Casa
TTITLE9=Sê Forte
TTITLE10=Diálogo com Deus
TTITLE11=Volta, Ovelha
EXTD=
EXTT0=
EXTT1=
EXTT2=
EXTT3=
EXTT4=
EXTT5=
EXTT6=
EXTT7=
EXTT8=
EXTT9=
EXTT10=
EXTT11=
PLAYORDER=
